<svg xmlns="http://www.w3.org/2000/svg" width="0.875rem" height="0.875rem" fill="none" viewBox="0 0 32 32"><path fill="url(#paint0_linear_7759_2368)" d="M30.42 12.539a2.075 2.075 0 00-1.79-1.426l-7.7-.664-3.018-7.177a2.068 2.068 0 00-3.817 0l-3.01 7.177-7.708.667a2.074 2.074 0 00-1.18 3.638l5.847 5.11-1.752 7.59a2.074 2.074 0 003.09 2.248l6.612-4.019 6.626 4.02a2.075 2.075 0 003.091-2.249l-1.751-7.597 5.847-5.103a2.074 2.074 0 00.613-2.215z"></path><g filter="url(#filter0_f_7759_2368)" opacity="0.81"><path fill="url(#paint1_radial_7759_2368)" fill-opacity="0.8" d="M28.444 13.18l-5.847 5.103a2.075 2.075 0 00-.659 2.037l1.757 7.602-6.621-4.019a2.062 2.062 0 00-2.145 0l-6.611 4.02 1.745-7.598a2.075 2.075 0 00-.659-2.037c6.188 0 13.193-1.256 19.042-5.112v.01l-.002-.006z"></path></g><g filter="url(#filter1_f_7759_2368)"><path fill="#FFE9E9" d="M12.48 14.05c-2.93-.634-8.748-.647-8.748-.647 3.955 3.42 10.976 5.627 17.54 2.824 0 0-5.862-1.541-8.792-2.176z"></path></g><g filter="url(#filter2_f_7759_2368)"><path fill="#FF4B52" d="M10.672 17.896c-1.353-.614-4.17-1.23-4.17-1.23 1.558 2.071 4.728 3.875 8.202 3.204 0 0-2.679-1.36-4.032-1.974z"></path></g><g filter="url(#filter3_f_7759_2368)"><path fill="#FF4B52" d="M9.366 22.873c-.47 1.409-.789 4.275-.789 4.275 1.898-1.764 3.363-5.105 2.334-8.49 0 0-1.074 2.805-1.545 4.215z"></path></g><g filter="url(#filter4_f_7759_2368)" opacity="0.81"><path fill="#FF4B52" d="M23.064 28.31s-2.396-1.607-3.429-2.675c-1.033-1.068-3.025-3.316-3.025-3.316-.85-3.215 2.316-5.435 4.812-4.33.677.34.261.503-.312.962l-1.17 3.598c0 2.237 2.677 4.143 3.123 5.76z"></path></g><g filter="url(#filter5_f_7759_2368)"><path fill="#fff" d="M8.122 25.07c-.364.804-.705 2.522-.705 2.522 1.115-.855 1.795-2.783 1.795-5.108 0 0-.726 1.781-1.09 2.586z"></path></g><g filter="url(#filter6_f_7759_2368)"><path fill="#fff" d="M20.819 27.085c.516.527 1.749 1.311 1.749 1.311-.329-1.125-1.623-2.237-3.43-2.94 0 0 1.165 1.103 1.681 1.63z"></path></g><g filter="url(#filter7_f_7759_2368)"><path fill="#fff" d="M15.245 5.112c.327-.495.721-1.702.721-1.702-.853.275-1.503 1.527-1.716 3.32 0 0 .668-1.124.995-1.618z"></path></g><g filter="url(#filter8_f_7759_2368)"><path fill="url(#paint2_linear_7759_2368)" fill-opacity="0.15" d="M28.444 13.18c-9.436 3.351-16.142 3.549-24.89.008v-.012l7.706-.666a2.075 2.075 0 001.731-1.264l3.01-7.168 3.007 7.168a2.075 2.075 0 001.73 1.264l7.708.666v.01l-.003-.006z"></path></g><path fill="url(#paint3_linear_7759_2368)" fill-opacity="0.5" d="M15.998 24.66l-6.177 4.78 6.177-3.765 6.275 3.805-6.275-4.82z"></path><path fill="url(#paint4_linear_7759_2368)" fill-opacity="0.5" d="M22.983 19.5l2.318 6.205-1.346-5.848 5.522-4.827-6.494 4.47z"></path><g filter="url(#filter9_f_7759_2368)"><path fill="url(#paint5_radial_7759_2368)" d="M19.385 14.094c-5.57.437-3.147-7.551-3.907-7.347-.76.204-1.834 4.928-2.855 5.511-1.022.584-5.18.912-5.18.912-.027 1.82 4.62 3.695 11.942.924z"></path></g><defs><filter id="filter0_f_7759_2368" width="22.795" height="17.413" x="6.984" y="11.843" color-interpolation-filters="sRGB" filterUnits="userSpaceOnUse"><feFlood flood-opacity="0" result="BackgroundImageFix"></feFlood><feBlend in="SourceGraphic" in2="BackgroundImageFix" result="shape"></feBlend><feGaussianBlur result="effect1_foregroundBlur_7759_2368" stdDeviation="0.667"></feGaussianBlur></filter><filter id="filter1_f_7759_2368" width="20.206" height="6.766" x="2.399" y="12.07" color-interpolation-filters="sRGB" filterUnits="userSpaceOnUse"><feFlood flood-opacity="0" result="BackgroundImageFix"></feFlood><feBlend in="SourceGraphic" in2="BackgroundImageFix" result="shape"></feBlend><feGaussianBlur result="effect1_foregroundBlur_7759_2368" stdDeviation="0.667"></feGaussianBlur></filter><filter id="filter2_f_7759_2368" width="10.869" height="6.012" x="5.168" y="15.333" color-interpolation-filters="sRGB" filterUnits="userSpaceOnUse"><feFlood flood-opacity="0" result="BackgroundImageFix"></feFlood><feBlend in="SourceGraphic" in2="BackgroundImageFix" result="shape"></feBlend><feGaussianBlur result="effect1_foregroundBlur_7759_2368" stdDeviation="0.667"></feGaussianBlur></filter><filter id="filter3_f_7759_2368" width="5.34" height="11.157" x="7.244" y="17.325" color-interpolation-filters="sRGB" filterUnits="userSpaceOnUse"><feFlood flood-opacity="0" result="BackgroundImageFix"></feFlood><feBlend in="SourceGraphic" in2="BackgroundImageFix" result="shape"></feBlend><feGaussianBlur result="effect1_foregroundBlur_7759_2368" stdDeviation="0.667"></feGaussianBlur></filter><filter id="filter4_f_7759_2368" width="9.261" height="13.274" x="15.136" y="16.369" color-interpolation-filters="sRGB" filterUnits="userSpaceOnUse"><feFlood flood-opacity="0" result="BackgroundImageFix"></feFlood><feBlend in="SourceGraphic" in2="BackgroundImageFix" result="shape"></feBlend><feGaussianBlur result="effect1_foregroundBlur_7759_2368" stdDeviation="0.667"></feGaussianBlur></filter><filter id="filter5_f_7759_2368" width="3.128" height="6.442" x="6.75" y="21.817" color-interpolation-filters="sRGB" filterUnits="userSpaceOnUse"><feFlood flood-opacity="0" result="BackgroundImageFix"></feFlood><feBlend in="SourceGraphic" in2="BackgroundImageFix" result="shape"></feBlend><feGaussianBlur result="effect1_foregroundBlur_7759_2368" stdDeviation="0.333"></feGaussianBlur></filter><filter id="filter6_f_7759_2368" width="4.764" height="4.274" x="18.471" y="24.79" color-interpolation-filters="sRGB" filterUnits="userSpaceOnUse"><feFlood flood-opacity="0" result="BackgroundImageFix"></feFlood><feBlend in="SourceGraphic" in2="BackgroundImageFix" result="shape"></feBlend><feGaussianBlur result="effect1_foregroundBlur_7759_2368" stdDeviation="0.333"></feGaussianBlur></filter><filter id="filter7_f_7759_2368" width="2.383" height="3.987" x="13.917" y="3.076" color-interpolation-filters="sRGB" filterUnits="userSpaceOnUse"><feFlood flood-opacity="0" result="BackgroundImageFix"></feFlood><feBlend in="SourceGraphic" in2="BackgroundImageFix" result="shape"></feBlend><feGaussianBlur result="effect1_foregroundBlur_7759_2368" stdDeviation="0.167"></feGaussianBlur></filter><filter id="filter8_f_7759_2368" width="30.226" height="17.024" x="0.887" y="1.411" color-interpolation-filters="sRGB" filterUnits="userSpaceOnUse"><feFlood flood-opacity="0" result="BackgroundImageFix"></feFlood><feBlend in="SourceGraphic" in2="BackgroundImageFix" result="shape"></feBlend><feGaussianBlur result="effect1_foregroundBlur_7759_2368" stdDeviation="1.333"></feGaussianBlur></filter><filter id="filter9_f_7759_2368" width="14.609" height="11.423" x="6.11" y="5.41" color-interpolation-filters="sRGB" filterUnits="userSpaceOnUse"><feFlood flood-opacity="0" result="BackgroundImageFix"></feFlood><feBlend in="SourceGraphic" in2="BackgroundImageFix" result="shape"></feBlend><feGaussianBlur result="effect1_foregroundBlur_7759_2368" stdDeviation="0.667"></feGaussianBlur></filter><linearGradient id="paint0_linear_7759_2368" x1="16" x2="16" y1="5.195" y2="31.122" gradientUnits="userSpaceOnUse"><stop stop-color="#FFBEEA"></stop><stop offset="1" stop-color="#FF7C44"></stop></linearGradient><radialGradient id="paint1_radial_7759_2368" cx="0" cy="0" r="1" gradientTransform="rotate(62.105 -6.23 24.178) scale(9.47244 16.6065)" gradientUnits="userSpaceOnUse"><stop stop-color="#FF000A"></stop><stop offset="1" stop-color="#FF67A3"></stop></radialGradient><linearGradient id="paint2_linear_7759_2368" x1="16" x2="16" y1="8.249" y2="15.769" gradientUnits="userSpaceOnUse"><stop stop-color="#fff" stop-opacity="0"></stop><stop offset="1" stop-color="#fff"></stop></linearGradient><linearGradient id="paint3_linear_7759_2368" x1="15.985" x2="15.985" y1="27.629" y2="24.536" gradientUnits="userSpaceOnUse"><stop offset="0.484" stop-color="#BD080F"></stop><stop offset="1" stop-color="#810000" stop-opacity="0"></stop></linearGradient><linearGradient id="paint4_linear_7759_2368" x1="22.942" x2="26.507" y1="19.426" y2="20.791" gradientUnits="userSpaceOnUse"><stop stop-color="#FF7277"></stop><stop offset="1" stop-color="#FC000A" stop-opacity="0.04"></stop></linearGradient><radialGradient id="paint5_radial_7759_2368" cx="0" cy="0" r="1" gradientTransform="rotate(48.106 -7.671 20.453) scale(4.4872 12.1489)" gradientUnits="userSpaceOnUse"><stop stop-color="#FFF0D9"></stop><stop offset="1" stop-color="#FBEBD4"></stop></radialGradient></defs></svg> 